<svg width="652" height="540" viewBox="0 0 652 540" fill="none" xmlns="http://www.w3.org/2000/svg">
<g opacity="0.46" filter="url(#filter0_f_44_1632)">
<circle cx="451" cy="507.486" r="19" fill="#0F0202"/>
</g>
<circle cx="451" cy="507.486" r="6.5" fill="#5F6871" stroke="white" stroke-width="5"/>
<g filter="url(#filter1_d_44_1632)">
<path d="M411 465.486C411 463.276 412.791 461.486 415 461.486H487C489.209 461.486 491 463.276 491 465.486V491.986C491 494.195 489.209 495.986 487 495.986H461.673C460.345 495.986 459.103 496.645 458.359 497.745L452.736 506.063C451.948 507.228 450.235 507.238 449.434 506.08L443.644 497.71C442.897 496.63 441.668 495.986 440.355 495.986H415C412.791 495.986 411 494.195 411 491.986V465.486Z" fill="white"/>
</g>
<path d="M441.67 479.19H442.998V480.486H441.558C440.619 480.486 439.883 480.192 439.35 479.606C438.849 480.192 438.139 480.486 437.222 480.486H436.15C435.254 480.486 434.561 480.208 434.07 479.654C433.569 480.208 432.87 480.486 431.974 480.486H430.918C430.363 480.486 429.883 480.374 429.478 480.15C429.35 481.238 428.875 482.086 428.054 482.694C427.318 483.248 426.406 483.526 425.318 483.526C423.931 483.526 422.854 483.035 422.086 482.054C421.499 481.296 421.206 480.4 421.206 479.366C421.206 478.47 421.43 477.702 421.878 477.062L423.206 476.774C422.726 477.531 422.486 478.347 422.486 479.222C422.486 480.118 422.763 480.854 423.318 481.43C423.841 481.963 424.507 482.23 425.318 482.23C426.257 482.23 426.982 481.958 427.494 481.414C427.921 480.955 428.134 480.358 428.134 479.622V475.35L429.51 474.614V477.59C429.51 478.656 430.027 479.19 431.062 479.19H431.814C432.849 479.19 433.366 478.656 433.366 477.59V474.806L434.758 474.086V477.59C434.758 478.656 435.275 479.19 436.31 479.19H437.062C438.097 479.19 438.614 478.656 438.614 477.59V474.278L440.006 473.542V477.446C440.006 478.608 440.561 479.19 441.67 479.19ZM442.043 480.486V479.19H443.099C444.145 479.19 444.667 478.656 444.667 477.59V474.278L446.043 473.542V477.638C446.043 478.544 445.771 479.259 445.227 479.782C444.726 480.251 444.07 480.486 443.259 480.486H442.043ZM442.891 483.67C442.369 483.67 442.107 483.403 442.107 482.87C442.107 482.347 442.369 482.086 442.891 482.086C443.403 482.086 443.659 482.347 443.659 482.87C443.659 483.403 443.403 483.67 442.891 483.67ZM444.923 483.67C444.401 483.67 444.139 483.403 444.139 482.87C444.139 482.347 444.401 482.086 444.923 482.086C445.435 482.086 445.691 482.347 445.691 482.87C445.691 483.403 445.435 483.67 444.923 483.67ZM456.389 479.19V480.486H454.405C454.362 481.403 453.967 482.16 453.221 482.758C452.591 483.248 451.877 483.494 451.077 483.494C450.415 483.494 449.791 483.339 449.205 483.03V481.814C449.77 482.112 450.33 482.262 450.885 482.262C451.45 482.262 451.941 482.086 452.357 481.734C452.783 481.382 453.002 480.96 453.013 480.47C452.458 480.448 452.047 480.427 451.781 480.406C450.629 480.342 449.759 479.952 449.173 479.238C448.682 478.64 448.437 477.867 448.437 476.918C448.437 475.755 448.746 474.848 449.365 474.198C449.919 473.622 450.65 473.334 451.557 473.334C452.506 473.334 453.237 473.616 453.749 474.182C454.186 474.683 454.405 475.339 454.405 476.15V479.19H456.389ZM453.013 476.246C453.013 475.158 452.527 474.614 451.557 474.614C451.002 474.614 450.57 474.816 450.261 475.222C449.951 475.616 449.797 476.171 449.797 476.886C449.797 478.283 450.479 479.024 451.845 479.11C452.101 479.142 452.49 479.168 453.013 479.19V476.246ZM455.434 480.486V479.19H456.874C457.909 479.19 458.426 478.656 458.426 477.59V475.35L459.802 474.614V477.59C459.802 478.656 460.325 479.19 461.37 479.19H462.106C463.151 479.19 463.674 478.656 463.674 477.59V474.806L465.05 474.086V477.59C465.05 478.656 465.567 479.19 466.602 479.19H467.354C468.399 479.19 468.922 478.656 468.922 477.59V474.278L470.298 473.542V477.446C470.298 478.608 470.853 479.19 471.962 479.19H473.29V480.486H471.85C470.89 480.486 470.159 480.16 469.658 479.51C469.21 480.15 468.511 480.475 467.562 480.486H466.458C465.519 480.486 464.821 480.171 464.362 479.542C463.903 480.16 463.221 480.475 462.314 480.486H461.21C460.293 480.486 459.594 480.171 459.114 479.542C458.655 480.171 457.957 480.486 457.018 480.486H455.434ZM472.325 480.486V479.19H473.173C474.282 479.19 474.837 478.608 474.837 477.446V470.902L476.229 470.166V477.462C476.229 478.411 475.946 479.163 475.381 479.718C474.847 480.23 474.149 480.486 473.285 480.486H472.325ZM479.104 480.486V470.902L480.48 470.166V480.486H479.104Z" fill="#1E2431"/>
<g opacity="0.46" filter="url(#filter2_f_44_1632)">
<circle cx="581" cy="67.4856" r="19" fill="#0F0202"/>
</g>
<circle cx="581" cy="67.4856" r="6.5" fill="#5F6871" stroke="white" stroke-width="5"/>
<g filter="url(#filter3_d_44_1632)">
<path d="M532 25.4856C532 23.2765 533.791 21.4856 536 21.4856H627C629.209 21.4856 631 23.2765 631 25.4856V51.9856C631 54.1947 629.209 55.9856 627 55.9856H591.673C590.345 55.9856 589.103 56.645 588.359 57.7454L582.736 66.0627C581.948 67.2283 580.235 67.2375 579.434 66.0804L573.644 57.71C572.897 56.6301 571.668 55.9856 570.355 55.9856H536C533.791 55.9856 532 54.1947 532 51.9856V25.4856Z" fill="white"/>
</g>
<path d="M560.432 31.4456C559.909 31.4456 559.648 31.1789 559.648 30.6456C559.648 30.1229 559.909 29.8616 560.432 29.8616C560.944 29.8616 561.2 30.1229 561.2 30.6456C561.2 31.1789 560.944 31.4456 560.432 31.4456ZM562.48 31.4456C561.957 31.4456 561.696 31.1789 561.696 30.6456C561.696 30.1229 561.957 29.8616 562.48 29.8616C562.992 29.8616 563.248 30.1229 563.248 30.6456C563.248 31.1789 562.992 31.4456 562.48 31.4456ZM561.472 40.4856C560.501 40.4856 559.744 40.1603 559.2 39.5096C558.731 38.9443 558.496 38.2243 558.496 37.3496C558.496 36.4003 558.757 35.5789 559.28 34.8856C559.813 34.1816 560.571 33.6643 561.552 33.3336C562.587 33.6856 563.365 34.2403 563.888 34.9976C564.357 35.6696 564.592 36.4536 564.592 37.3496C564.592 38.3629 564.293 39.1576 563.696 39.7336C563.163 40.2349 562.475 40.4856 561.632 40.4856H561.472ZM561.424 39.1896H561.664C562.144 39.1896 562.523 39.0243 562.8 38.6936C563.088 38.3629 563.232 37.9203 563.232 37.3656C563.232 36.0856 562.672 35.1683 561.552 34.6136C560.432 35.1683 559.872 36.0803 559.872 37.3496C559.872 37.9149 560.011 38.3629 560.288 38.6936C560.565 39.0243 560.944 39.1896 561.424 39.1896ZM571.032 39.1896H572.088V40.4856H570.872C570.328 40.4856 569.859 40.3789 569.464 40.1656C569.368 41.2216 569 42.0643 568.36 42.6936C567.773 43.2696 567.037 43.5576 566.152 43.5576C565.512 43.5576 564.888 43.3976 564.28 43.0776V41.8776C564.824 42.1763 565.368 42.3256 565.912 42.3256C566.595 42.3256 567.128 42.0963 567.512 41.6376C567.896 41.1789 568.088 40.5443 568.088 39.7336V34.2776L569.464 33.5416V33.5576L569.48 33.5416V37.9096C569.576 38.7629 570.093 39.1896 571.032 39.1896ZM573.049 35.7336C573.316 34.7523 573.823 34.0003 574.569 33.4776C575.177 33.0616 575.865 32.8536 576.633 32.8536C577.764 32.8536 578.697 33.2376 579.433 34.0056C580.127 34.7309 580.473 35.6643 580.473 36.8056V37.6536C580.473 38.5816 580.185 39.3016 579.609 39.8136C579.108 40.2616 578.457 40.4856 577.657 40.4856H575.929C575.567 40.4856 575.225 40.4323 574.905 40.3256C574.575 40.4323 574.233 40.4856 573.881 40.4856H571.129V39.1896H573.193C572.788 38.6456 572.585 38.0269 572.585 37.3336C572.585 36.7043 572.74 36.1709 573.049 35.7336ZM579.081 37.5256V36.8056C579.081 35.9203 578.799 35.2323 578.233 34.7416C577.775 34.3363 577.225 34.1336 576.585 34.1336C575.849 34.1336 575.273 34.3736 574.857 34.8536H574.905C575.609 34.8536 576.169 35.0829 576.585 35.5416C577.012 35.9896 577.225 36.5869 577.225 37.3336C577.225 38.0483 577.017 38.6669 576.601 39.1896H577.609C578.132 39.1896 578.505 39.0616 578.729 38.8056C578.964 38.5389 579.081 38.1123 579.081 37.5256ZM574.905 39.0456C575.78 38.7469 576.217 38.1496 576.217 37.2536C576.217 36.8056 576.095 36.4483 575.849 36.1816C575.615 35.9043 575.3 35.7656 574.905 35.7656C574.511 35.7656 574.191 35.9043 573.945 36.1816C573.711 36.4483 573.593 36.8056 573.593 37.2536C573.593 38.1496 574.031 38.7469 574.905 39.0456ZM585.818 40.4856C584.89 40.4856 584.175 40.1869 583.674 39.5896C583.247 39.0776 583.034 38.4269 583.034 37.6376V30.9016L584.41 30.1656V37.5896C584.41 38.6563 584.932 39.1896 585.978 39.1896H587.034V40.4856H585.818ZM590.035 31.7176C589.512 31.7176 589.251 31.4509 589.251 30.9176C589.251 30.3949 589.512 30.1336 590.035 30.1336C590.547 30.1336 590.803 30.3949 590.803 30.9176C590.803 31.4509 590.547 31.7176 590.035 31.7176ZM592.067 31.7176C591.544 31.7176 591.283 31.4509 591.283 30.9176C591.283 30.3949 591.544 30.1336 592.067 30.1336C592.579 30.1336 592.835 30.3949 592.835 30.9176C592.835 31.4509 592.579 31.7176 592.067 31.7176ZM593.059 39.1896H596.035V40.4856H592.131C591.715 40.4856 591.352 40.4483 591.043 40.3736C590.744 40.4483 590.382 40.4856 589.955 40.4856H586.067V39.1896H589.043C588.382 38.4323 588.051 37.5949 588.051 36.6776C588.051 35.6323 588.344 34.8003 588.931 34.1816C589.464 33.6163 590.168 33.3336 591.043 33.3336C592.046 33.3336 592.819 33.6963 593.363 34.4216C593.822 35.0189 594.051 35.7709 594.051 36.6776C594.051 37.5949 593.72 38.4323 593.059 39.1896ZM591.059 39.0456C591.55 38.8749 591.95 38.5656 592.259 38.1176C592.568 37.6589 592.723 37.1576 592.723 36.6136C592.723 35.9949 592.568 35.5096 592.259 35.1576C591.96 34.7949 591.555 34.6136 591.043 34.6136C590.531 34.6136 590.12 34.7949 589.811 35.1576C589.512 35.5203 589.363 36.0056 589.363 36.6136C589.363 37.1469 589.523 37.6429 589.843 38.1016C590.163 38.5603 590.568 38.8749 591.059 39.0456ZM595.082 40.4856V39.1896H595.931C597.04 39.1896 597.595 38.6083 597.595 37.4456V30.9016L598.987 30.1656V37.4616C598.987 38.4109 598.704 39.1629 598.139 39.7176C597.605 40.2296 596.907 40.4856 596.043 40.4856H595.082ZM601.862 40.4856V30.9016L603.238 30.1656V40.4856H601.862Z" fill="#1E2431"/>
<g opacity="0.46" filter="url(#filter4_f_44_1632)">
<circle cx="276" cy="158.486" r="19" fill="#0F0202"/>
</g>
<circle cx="276" cy="158.486" r="6.5" fill="#5F6871" stroke="white" stroke-width="5"/>
<g filter="url(#filter5_d_44_1632)">
<path d="M227 116.486C227 114.276 228.791 112.486 231 112.486H321C323.209 112.486 325 114.276 325 116.486V142.986C325 145.195 323.209 146.986 321 146.986H286.673C285.345 146.986 284.103 147.645 283.359 148.745L277.736 157.063C276.948 158.228 275.235 158.238 274.434 157.08L268.644 148.71C267.897 147.63 266.668 146.986 265.355 146.986H231C228.791 146.986 227 145.195 227 142.986V116.486Z" fill="white"/>
</g>
<path d="M247.252 122.446C246.73 122.446 246.468 122.179 246.468 121.646C246.468 121.123 246.73 120.862 247.252 120.862C247.764 120.862 248.02 121.123 248.02 121.646C248.02 122.179 247.764 122.446 247.252 122.446ZM249.3 122.446C248.778 122.446 248.516 122.179 248.516 121.646C248.516 121.123 248.778 120.862 249.3 120.862C249.812 120.862 250.068 121.123 250.068 121.646C250.068 122.179 249.812 122.446 249.3 122.446ZM248.292 131.486C247.322 131.486 246.564 131.16 246.02 130.51C245.551 129.944 245.316 129.224 245.316 128.35C245.316 127.4 245.578 126.579 246.1 125.886C246.634 125.182 247.391 124.664 248.372 124.334C249.407 124.686 250.186 125.24 250.708 125.998C251.178 126.67 251.412 127.454 251.412 128.35C251.412 129.363 251.114 130.158 250.516 130.734C249.983 131.235 249.295 131.486 248.452 131.486H248.292ZM248.244 130.19H248.484C248.964 130.19 249.343 130.024 249.62 129.694C249.908 129.363 250.052 128.92 250.052 128.366C250.052 127.086 249.492 126.168 248.372 125.614C247.252 126.168 246.692 127.08 246.692 128.35C246.692 128.915 246.831 129.363 247.108 129.694C247.386 130.024 247.764 130.19 248.244 130.19ZM256.3 130.638C256.3 131.832 255.986 132.792 255.356 133.518C254.759 134.211 253.964 134.558 252.972 134.558C252.332 134.558 251.708 134.398 251.1 134.078V132.878C251.644 133.176 252.188 133.326 252.732 133.326C253.415 133.326 253.948 133.096 254.332 132.638C254.716 132.179 254.908 131.544 254.908 130.734V125.278L256.3 124.542V130.638ZM266.654 130.19V131.486H264.67C264.628 132.403 264.233 133.16 263.486 133.758C262.857 134.248 262.142 134.494 261.342 134.494C260.681 134.494 260.057 134.339 259.47 134.03V132.814C260.036 133.112 260.596 133.262 261.15 133.262C261.716 133.262 262.206 133.086 262.622 132.734C263.049 132.382 263.268 131.96 263.278 131.47C262.724 131.448 262.313 131.427 262.046 131.406C260.894 131.342 260.025 130.952 259.438 130.238C258.948 129.64 258.702 128.867 258.702 127.918C258.702 126.755 259.012 125.848 259.63 125.198C260.185 124.622 260.916 124.334 261.822 124.334C262.772 124.334 263.502 124.616 264.014 125.182C264.452 125.683 264.67 126.339 264.67 127.15V130.19H266.654ZM263.278 127.246C263.278 126.158 262.793 125.614 261.822 125.614C261.268 125.614 260.836 125.816 260.526 126.222C260.217 126.616 260.062 127.171 260.062 127.886C260.062 129.283 260.745 130.024 262.11 130.11C262.366 130.142 262.756 130.168 263.278 130.19V127.246ZM282.084 130.19H283.14V131.486H281.924C281.028 131.486 280.329 131.208 279.828 130.654C279.326 131.208 278.628 131.486 277.732 131.486H271.108C270.222 131.486 269.524 131.203 269.012 130.638C268.5 131.203 267.801 131.486 266.916 131.486H265.7V130.19H266.756C267.801 130.19 268.324 129.656 268.324 128.59V126.35L269.7 125.614V128.59C269.7 129.486 270.046 130.003 270.74 130.142C271.166 128.531 271.87 127.187 272.852 126.11C273.95 124.926 275.23 124.334 276.692 124.334C277.908 124.334 278.878 124.755 279.604 125.598C280.212 126.312 280.516 127.192 280.516 128.238V128.622C280.516 129.667 281.038 130.19 282.084 130.19ZM277.652 130.19C278.644 130.19 279.14 129.635 279.14 128.526V128.238C279.14 127.406 278.884 126.744 278.372 126.254C277.924 125.827 277.369 125.614 276.708 125.614C275.577 125.614 274.558 126.136 273.652 127.182C272.958 127.982 272.425 128.984 272.052 130.19H277.652ZM285.224 122.606C284.701 122.606 284.44 122.339 284.44 121.806C284.44 121.283 284.701 121.022 285.224 121.022C285.736 121.022 285.992 121.283 285.992 121.806C285.992 122.339 285.736 122.606 285.224 122.606ZM287.752 130.19H288.808V131.486H287.592C286.707 131.486 286.008 131.203 285.496 130.638C284.984 131.203 284.285 131.486 283.4 131.486H282.184V130.19H283.24C284.285 130.19 284.808 129.656 284.808 128.59V125.278L286.184 124.542V128.59C286.184 129.656 286.707 130.19 287.752 130.19ZM298.144 130.19H299.216V131.486H298C297.115 131.486 296.416 131.203 295.904 130.638C295.36 131.416 294.566 131.806 293.52 131.806C292.475 131.806 291.686 131.422 291.152 130.654C290.651 131.208 289.952 131.486 289.056 131.486H287.84V130.19H288.896C289.942 130.19 290.464 129.656 290.464 128.59V128.062C290.464 126.824 290.768 125.875 291.376 125.214C291.91 124.627 292.624 124.334 293.52 124.334C294.544 124.334 295.334 124.712 295.888 125.47C296.358 126.12 296.592 126.984 296.592 128.062V128.59C296.592 129.656 297.11 130.19 298.144 130.19ZM293.52 130.51C294.043 130.51 294.454 130.291 294.752 129.854C295.062 129.416 295.216 128.814 295.216 128.046C295.216 126.424 294.651 125.614 293.52 125.614C292.4 125.614 291.84 126.424 291.84 128.046C291.84 129.688 292.4 130.51 293.52 130.51ZM298.262 131.486V130.19H299.11C300.22 130.19 300.774 129.608 300.774 128.446V121.902L302.166 121.166V128.462C302.166 129.411 301.884 130.163 301.318 130.718C300.785 131.23 300.086 131.486 299.222 131.486H298.262ZM305.042 131.486V121.902L306.418 121.166V131.486H305.042Z" fill="#1E2431"/>
<g opacity="0.46" filter="url(#filter6_f_44_1632)">
<circle cx="88" cy="55.4856" r="19" fill="#0F0202"/>
</g>
<circle cx="88" cy="55.4856" r="6.5" fill="#5F6871" stroke="white" stroke-width="5"/>
<g filter="url(#filter7_d_44_1632)">
<path d="M42 13.4856C42 11.2765 43.7909 9.4856 46 9.4856H130C132.209 9.4856 134 11.2765 134 13.4856V39.9856C134 42.1947 132.209 43.9856 130 43.9856H98.6728C97.3446 43.9856 96.1029 44.645 95.359 45.7454L89.7362 54.0627C88.9482 55.2283 87.2349 55.2375 86.4345 54.0804L80.6442 45.71C79.8972 44.6301 78.6677 43.9856 77.3546 43.9856H46C43.7909 43.9856 42 42.1947 42 39.9856V13.4856Z" fill="white"/>
</g>
<path d="M68.9018 27.6376C68.9018 28.8323 68.5871 29.7923 67.9578 30.5176C67.3604 31.2109 66.5658 31.5576 65.5738 31.5576C64.9337 31.5576 64.3097 31.3976 63.7017 31.0776V29.8776C64.2457 30.1763 64.7897 30.3256 65.3338 30.3256C66.0164 30.3256 66.5498 30.0963 66.9338 29.6376C67.3178 29.1789 67.5098 28.5443 67.5098 27.7336V22.2776L68.9018 21.5416V27.6376ZM79.2558 27.1896V28.4856H77.2718C77.2291 29.4029 76.8344 30.1603 76.0878 30.7576C75.4584 31.2483 74.7438 31.4936 73.9438 31.4936C73.2824 31.4936 72.6584 31.3389 72.0718 31.0296V29.8136C72.6371 30.1123 73.1971 30.2616 73.7518 30.2616C74.3171 30.2616 74.8078 30.0856 75.2238 29.7336C75.6504 29.3816 75.8691 28.9603 75.8798 28.4696C75.3251 28.4483 74.9144 28.4269 74.6478 28.4056C73.4958 28.3416 72.6264 27.9523 72.0398 27.2376C71.5491 26.6403 71.3038 25.8669 71.3038 24.9176C71.3038 23.7549 71.6131 22.8483 72.2318 22.1976C72.7864 21.6216 73.5171 21.3336 74.4238 21.3336C75.3731 21.3336 76.1038 21.6163 76.6158 22.1816C77.0531 22.6829 77.2718 23.3389 77.2718 24.1496V27.1896H79.2558ZM75.8798 24.2456C75.8798 23.1576 75.3944 22.6136 74.4238 22.6136C73.8691 22.6136 73.4371 22.8163 73.1278 23.2216C72.8184 23.6163 72.6638 24.1709 72.6638 24.8856C72.6638 26.2829 73.3464 27.0243 74.7118 27.1096C74.9678 27.1416 75.3571 27.1683 75.8798 27.1896V24.2456ZM89.1973 27.1896H90.2533V28.4856H89.0373C88.1413 28.4856 87.4479 28.2083 86.9573 27.6536C86.4346 28.2083 85.7253 28.4856 84.8293 28.4856H83.1013C82.7386 28.4856 82.3973 28.4323 82.0773 28.3256C81.7466 28.4323 81.4053 28.4856 81.0533 28.4856H78.3012V27.1896H80.3653C79.9599 26.6456 79.7573 26.0269 79.7573 25.3336C79.7573 24.7043 79.9119 24.1709 80.2213 23.7336C80.4879 22.7523 80.9946 22.0003 81.7413 21.4776C82.3493 21.0616 83.0373 20.8536 83.8053 20.8536C84.9359 20.8536 85.8693 21.2376 86.6053 22.0056C87.2986 22.7309 87.6453 23.6643 87.6453 24.8056V25.5896C87.6453 26.6563 88.1626 27.1896 89.1973 27.1896ZM84.7813 27.1896C85.3039 27.1896 85.6773 27.0616 85.9013 26.8056C86.1359 26.5389 86.2533 26.1123 86.2533 25.5256V24.8056C86.2533 23.9203 85.9706 23.2323 85.4053 22.7416C84.9466 22.3363 84.3973 22.1336 83.7573 22.1336C83.0213 22.1336 82.4453 22.3736 82.0293 22.8536H82.0773C82.7813 22.8536 83.3413 23.0829 83.7573 23.5416C84.1839 23.9896 84.3973 24.5869 84.3973 25.3336C84.3973 26.0483 84.1893 26.6669 83.7733 27.1896H84.7813ZM82.0773 27.0456C82.9519 26.7469 83.3893 26.1496 83.3893 25.2536C83.3893 24.8056 83.2666 24.4483 83.0213 24.1816C82.7866 23.9043 82.4719 23.7656 82.0773 23.7656C81.6826 23.7656 81.3626 23.9043 81.1173 24.1816C80.8826 24.4483 80.7653 24.8056 80.7653 25.2536C80.7653 26.1496 81.2026 26.7469 82.0773 27.0456ZM92.3256 19.6056C91.803 19.6056 91.5416 19.3389 91.5416 18.8056C91.5416 18.2829 91.803 18.0216 92.3256 18.0216C92.8376 18.0216 93.0936 18.2829 93.0936 18.8056C93.0936 19.3389 92.8376 19.6056 92.3256 19.6056ZM94.8536 27.1896H95.9096V28.4856H94.6936C93.8083 28.4856 93.1096 28.2029 92.5976 27.6376C92.0856 28.2029 91.387 28.4856 90.5016 28.4856H89.2856V27.1896H90.3416C91.387 27.1896 91.9096 26.6563 91.9096 25.5896V22.2776L93.2856 21.5416V25.5896C93.2856 26.6563 93.8083 27.1896 94.8536 27.1896ZM97.5659 24.1496C97.5659 23.2216 97.8432 22.5016 98.3979 21.9896C98.8885 21.5523 99.5285 21.3336 100.318 21.3336C101.331 21.3336 102.11 21.7069 102.654 22.4536C103.123 23.0829 103.358 23.9043 103.358 24.9176C103.358 26.0696 103.059 26.9709 102.462 27.6216C101.939 28.1976 101.257 28.4856 100.414 28.4856C99.4539 28.4856 98.7232 28.2189 98.2219 27.6856C97.7099 28.2189 97.0219 28.4856 96.1579 28.4856H94.9419V27.1896H95.9979C97.0432 27.1896 97.5659 26.6563 97.5659 25.5896V24.1496ZM98.9419 25.7016C98.9419 26.6936 99.4272 27.1896 100.398 27.1896C100.899 27.1896 101.289 26.9869 101.566 26.5816C101.854 26.1763 101.998 25.6109 101.998 24.8856C101.998 24.1709 101.849 23.6163 101.55 23.2216C101.251 22.8163 100.841 22.6136 100.318 22.6136C99.4005 22.6136 98.9419 23.1469 98.9419 24.2136V25.7016ZM104.723 28.4856L105.395 27.1896H108.243C108.669 27.1896 108.968 27.0829 109.139 26.8696C109.32 26.6563 109.411 26.2883 109.411 25.7656C109.411 24.3363 108.765 23.2536 107.475 22.5176L108.147 21.3816C109.907 22.3843 110.787 23.8509 110.787 25.7816C110.787 27.5843 110.019 28.4856 108.483 28.4856H104.723Z" fill="#1E2431"/>
<g opacity="0.46" filter="url(#filter8_f_44_1632)">
<circle cx="89" cy="408.486" r="19" fill="#0F0202"/>
</g>
<circle cx="89" cy="408.486" r="6.5" fill="#5F6871" stroke="white" stroke-width="5"/>
<g filter="url(#filter9_d_44_1632)">
<path d="M21 366.486C21 364.276 22.7909 362.486 25 362.486H153C155.209 362.486 157 364.276 157 366.486V392.986C157 395.195 155.209 396.986 153 396.986H99.6728C98.3446 396.986 97.1029 397.645 96.359 398.745L90.7362 407.063C89.9482 408.228 88.2349 408.238 87.4345 407.08L81.6442 398.71C80.8972 397.63 79.6677 396.986 78.3546 396.986H25C22.7909 396.986 21 395.195 21 392.986V366.486Z" fill="white"/>
</g>
<path d="M55.9961 372.446C55.4734 372.446 55.2121 372.179 55.2121 371.646C55.2121 371.123 55.4734 370.862 55.9961 370.862C56.5081 370.862 56.7641 371.123 56.7641 371.646C56.7641 372.179 56.5081 372.446 55.9961 372.446ZM58.0281 372.446C57.5054 372.446 57.2441 372.179 57.2441 371.646C57.2441 371.123 57.5054 370.862 58.0281 370.862C58.5401 370.862 58.7961 371.123 58.7961 371.646C58.7961 372.179 58.5401 372.446 58.0281 372.446ZM61.0041 380.19H62.0601V381.486H60.8441C59.7454 381.486 58.9561 381.08 58.4761 380.27C57.9641 380.76 57.3294 381.006 56.5721 381.006C55.6334 381.006 54.8867 380.654 54.3321 379.95C53.8734 379.352 53.6441 378.622 53.6441 377.758C53.6441 376.723 53.9587 375.891 54.5881 375.262C55.1214 374.718 55.7721 374.446 56.5401 374.446C57.1267 374.446 57.6334 374.595 58.0601 374.894V374.206L59.4521 373.47V378.59C59.4521 379.656 59.9694 380.19 61.0041 380.19ZM58.0601 376.382C57.6654 375.944 57.1801 375.726 56.6041 375.726C56.1347 375.726 55.7507 375.918 55.4521 376.302C55.1534 376.675 55.0041 377.166 55.0041 377.774C55.0041 378.392 55.1534 378.888 55.4521 379.262C55.7507 379.635 56.1401 379.822 56.6201 379.822C57.2174 379.822 57.7081 379.576 58.0921 379.086C58.0707 378.894 58.0601 378.744 58.0601 378.638V376.382ZM61.1059 381.486V380.19H62.1619C63.2073 380.19 63.7299 379.656 63.7299 378.59V375.278L65.1059 374.542V378.638C65.1059 379.544 64.8339 380.259 64.2899 380.782C63.7886 381.251 63.1326 381.486 62.3219 381.486H61.1059ZM61.9539 384.67C61.4313 384.67 61.1699 384.403 61.1699 383.87C61.1699 383.347 61.4313 383.086 61.9539 383.086C62.4659 383.086 62.7219 383.347 62.7219 383.87C62.7219 384.403 62.4659 384.67 61.9539 384.67ZM63.9859 384.67C63.4633 384.67 63.2019 384.403 63.2019 383.87C63.2019 383.347 63.4633 383.086 63.9859 383.086C64.4979 383.086 64.7539 383.347 64.7539 383.87C64.7539 384.403 64.4979 384.67 63.9859 384.67ZM71.3939 380.638C71.3939 381.832 71.0793 382.792 70.4499 383.518C69.8526 384.211 69.0579 384.558 68.0659 384.558C67.4259 384.558 66.8019 384.398 66.1939 384.078V382.878C66.7379 383.176 67.2819 383.326 67.8259 383.326C68.5086 383.326 69.0419 383.096 69.4259 382.638C69.8099 382.179 70.0019 381.544 70.0019 380.734V375.278L71.3939 374.542V380.638ZM72.9959 381.486L73.6679 380.19H76.5159C76.9426 380.19 77.2413 380.083 77.4119 379.87C77.5933 379.656 77.6839 379.288 77.6839 378.766C77.6839 377.347 77.0279 376.28 75.7159 375.566L76.4199 374.382C78.0946 375.363 78.9693 376.718 79.0439 378.446C79.0653 379.064 79.2039 379.512 79.4599 379.79C79.7266 380.056 80.1479 380.19 80.7239 380.19H81.6679V381.486H80.6119C79.7266 381.486 79.0333 381.203 78.5319 380.638C78.1799 381.203 77.5879 381.486 76.7559 381.486H72.9959ZM83.7553 372.606C83.2326 372.606 82.9713 372.339 82.9713 371.806C82.9713 371.283 83.2326 371.022 83.7553 371.022C84.2673 371.022 84.5233 371.283 84.5233 371.806C84.5233 372.339 84.2673 372.606 83.7553 372.606ZM86.2833 380.19H87.3393V381.486H86.1233C85.238 381.486 84.5393 381.203 84.0273 380.638C83.5153 381.203 82.8166 381.486 81.9313 381.486H80.7153V380.19H81.7713C82.8166 380.19 83.3393 379.656 83.3393 378.59V375.278L84.7153 374.542V378.59C84.7153 379.656 85.238 380.19 86.2833 380.19ZM95.1236 380.19H96.0356V381.486H94.9796C94.0836 381.486 93.3849 381.208 92.8836 380.654C92.3822 381.208 91.6836 381.486 90.7876 381.486H86.3716V380.19H90.6596C91.6836 380.19 92.1956 379.651 92.1956 378.574V378.43C92.1956 377.63 91.8862 377.022 91.2676 376.606C90.7769 376.264 90.1742 376.094 89.4596 376.094C88.8942 376.094 88.3289 376.2 87.7636 376.414V375.054L91.2676 371.166H92.6756L89.5236 374.718C89.5342 374.718 89.5502 374.718 89.5716 374.718C89.5929 374.718 89.6089 374.718 89.6196 374.718C90.8356 374.718 91.8169 375.086 92.5636 375.822C93.2356 376.504 93.5716 377.368 93.5716 378.414V378.59C93.5716 379.656 94.0889 380.19 95.1236 380.19ZM95.0747 381.486V380.19H96.5147C97.5494 380.19 98.0667 379.656 98.0667 378.59V376.35L99.4427 375.614V378.59C99.4427 379.656 99.9654 380.19 101.011 380.19H101.747C102.792 380.19 103.315 379.656 103.315 378.59V375.806L104.691 375.086V378.59C104.691 379.656 105.208 380.19 106.243 380.19H106.995C108.04 380.19 108.563 379.656 108.563 378.59V375.278L109.939 374.542V378.638C109.939 379.544 109.667 380.254 109.123 380.766C108.643 381.235 108.003 381.475 107.203 381.486H106.099C105.16 381.486 104.461 381.171 104.003 380.542C103.544 381.16 102.861 381.475 101.955 381.486H100.851C99.9334 381.486 99.2347 381.171 98.7547 380.542C98.296 381.171 97.5974 381.486 96.6587 381.486H95.0747ZM118.759 371.902L120.151 371.166V378.462C120.151 379.411 119.868 380.163 119.303 380.718C118.769 381.23 118.071 381.486 117.207 381.486H111.703L112.375 380.19H114.711V373.982L116.087 373.246V380.19H117.095C118.204 380.19 118.759 379.608 118.759 378.446V371.902ZM116.327 383.646C116.092 383.464 115.868 383.374 115.655 383.374C115.26 383.374 115.063 383.55 115.063 383.902C115.063 384.083 115.137 384.264 115.287 384.446H116.743L116.375 385.134H113.735L114.103 384.446H114.535C114.428 384.254 114.375 384.051 114.375 383.838C114.375 383.528 114.492 383.256 114.727 383.022C114.961 382.798 115.239 382.686 115.559 382.686C115.825 382.686 116.081 382.771 116.327 382.942V383.646ZM123.026 381.486V371.902L124.402 371.166V381.486H123.026Z" fill="#1E2431"/>
<defs>
<filter id="filter0_f_44_1632" x="419" y="475.486" width="64" height="64" filterUnits="userSpaceOnUse" color-interpolation-filters="sRGB">
<feFlood flood-opacity="0" result="BackgroundImageFix"/>
<feBlend mode="normal" in="SourceGraphic" in2="BackgroundImageFix" result="shape"/>
<feGaussianBlur stdDeviation="6.5" result="effect1_foregroundBlur_44_1632"/>
</filter>
<filter id="filter1_d_44_1632" x="390" y="452.486" width="122" height="87.457" filterUnits="userSpaceOnUse" color-interpolation-filters="sRGB">
<feFlood flood-opacity="0" result="BackgroundImageFix"/>
<feColorMatrix in="SourceAlpha" type="matrix" values="0 0 0 0 0 0 0 0 0 0 0 0 0 0 0 0 0 0 127 0" result="hardAlpha"/>
<feOffset dy="12"/>
<feGaussianBlur stdDeviation="10.5"/>
<feColorMatrix type="matrix" values="0 0 0 0 0.0720618 0 0 0 0 0 0 0 0 0 0.237804 0 0 0 0.1 0"/>
<feBlend mode="normal" in2="BackgroundImageFix" result="effect1_dropShadow_44_1632"/>
<feBlend mode="normal" in="SourceGraphic" in2="effect1_dropShadow_44_1632" result="shape"/>
</filter>
<filter id="filter2_f_44_1632" x="549" y="35.4856" width="64" height="64" filterUnits="userSpaceOnUse" color-interpolation-filters="sRGB">
<feFlood flood-opacity="0" result="BackgroundImageFix"/>
<feBlend mode="normal" in="SourceGraphic" in2="BackgroundImageFix" result="shape"/>
<feGaussianBlur stdDeviation="6.5" result="effect1_foregroundBlur_44_1632"/>
</filter>
<filter id="filter3_d_44_1632" x="511" y="12.4856" width="141" height="87.457" filterUnits="userSpaceOnUse" color-interpolation-filters="sRGB">
<feFlood flood-opacity="0" result="BackgroundImageFix"/>
<feColorMatrix in="SourceAlpha" type="matrix" values="0 0 0 0 0 0 0 0 0 0 0 0 0 0 0 0 0 0 127 0" result="hardAlpha"/>
<feOffset dy="12"/>
<feGaussianBlur stdDeviation="10.5"/>
<feColorMatrix type="matrix" values="0 0 0 0 0.0720618 0 0 0 0 0 0 0 0 0 0.237804 0 0 0 0.1 0"/>
<feBlend mode="normal" in2="BackgroundImageFix" result="effect1_dropShadow_44_1632"/>
<feBlend mode="normal" in="SourceGraphic" in2="effect1_dropShadow_44_1632" result="shape"/>
</filter>
<filter id="filter4_f_44_1632" x="244" y="126.486" width="64" height="64" filterUnits="userSpaceOnUse" color-interpolation-filters="sRGB">
<feFlood flood-opacity="0" result="BackgroundImageFix"/>
<feBlend mode="normal" in="SourceGraphic" in2="BackgroundImageFix" result="shape"/>
<feGaussianBlur stdDeviation="6.5" result="effect1_foregroundBlur_44_1632"/>
</filter>
<filter id="filter5_d_44_1632" x="206" y="103.486" width="140" height="87.457" filterUnits="userSpaceOnUse" color-interpolation-filters="sRGB">
<feFlood flood-opacity="0" result="BackgroundImageFix"/>
<feColorMatrix in="SourceAlpha" type="matrix" values="0 0 0 0 0 0 0 0 0 0 0 0 0 0 0 0 0 0 127 0" result="hardAlpha"/>
<feOffset dy="12"/>
<feGaussianBlur stdDeviation="10.5"/>
<feColorMatrix type="matrix" values="0 0 0 0 0.0720618 0 0 0 0 0 0 0 0 0 0.237804 0 0 0 0.1 0"/>
<feBlend mode="normal" in2="BackgroundImageFix" result="effect1_dropShadow_44_1632"/>
<feBlend mode="normal" in="SourceGraphic" in2="effect1_dropShadow_44_1632" result="shape"/>
</filter>
<filter id="filter6_f_44_1632" x="56" y="23.4856" width="64" height="64" filterUnits="userSpaceOnUse" color-interpolation-filters="sRGB">
<feFlood flood-opacity="0" result="BackgroundImageFix"/>
<feBlend mode="normal" in="SourceGraphic" in2="BackgroundImageFix" result="shape"/>
<feGaussianBlur stdDeviation="6.5" result="effect1_foregroundBlur_44_1632"/>
</filter>
<filter id="filter7_d_44_1632" x="21" y="0.485596" width="134" height="87.457" filterUnits="userSpaceOnUse" color-interpolation-filters="sRGB">
<feFlood flood-opacity="0" result="BackgroundImageFix"/>
<feColorMatrix in="SourceAlpha" type="matrix" values="0 0 0 0 0 0 0 0 0 0 0 0 0 0 0 0 0 0 127 0" result="hardAlpha"/>
<feOffset dy="12"/>
<feGaussianBlur stdDeviation="10.5"/>
<feColorMatrix type="matrix" values="0 0 0 0 0.0720618 0 0 0 0 0 0 0 0 0 0.237804 0 0 0 0.1 0"/>
<feBlend mode="normal" in2="BackgroundImageFix" result="effect1_dropShadow_44_1632"/>
<feBlend mode="normal" in="SourceGraphic" in2="effect1_dropShadow_44_1632" result="shape"/>
</filter>
<filter id="filter8_f_44_1632" x="57" y="376.486" width="64" height="64" filterUnits="userSpaceOnUse" color-interpolation-filters="sRGB">
<feFlood flood-opacity="0" result="BackgroundImageFix"/>
<feBlend mode="normal" in="SourceGraphic" in2="BackgroundImageFix" result="shape"/>
<feGaussianBlur stdDeviation="6.5" result="effect1_foregroundBlur_44_1632"/>
</filter>
<filter id="filter9_d_44_1632" x="0" y="353.486" width="178" height="87.457" filterUnits="userSpaceOnUse" color-interpolation-filters="sRGB">
<feFlood flood-opacity="0" result="BackgroundImageFix"/>
<feColorMatrix in="SourceAlpha" type="matrix" values="0 0 0 0 0 0 0 0 0 0 0 0 0 0 0 0 0 0 127 0" result="hardAlpha"/>
<feOffset dy="12"/>
<feGaussianBlur stdDeviation="10.5"/>
<feColorMatrix type="matrix" values="0 0 0 0 0.0720618 0 0 0 0 0 0 0 0 0 0.237804 0 0 0 0.1 0"/>
<feBlend mode="normal" in2="BackgroundImageFix" result="effect1_dropShadow_44_1632"/>
<feBlend mode="normal" in="SourceGraphic" in2="effect1_dropShadow_44_1632" result="shape"/>
</filter>
</defs>
</svg>
