<svg width="174" height="134" viewBox="0 0 174 134" fill="none" xmlns="http://www.w3.org/2000/svg">
<path d="M5.34247 2.67123C5.34247 4.14651 4.14651 5.34247 2.67123 5.34247C1.19595 5.34247 0 4.14651 0 2.67123C0 1.19595 1.19595 0 2.67123 0C4.14651 0 5.34247 1.19595 5.34247 2.67123Z" fill="#C4C4C4"/>
<path d="M24.0411 2.67123C24.0411 4.14651 22.8451 5.34247 21.3699 5.34247C19.8946 5.34247 18.6986 4.14651 18.6986 2.67123C18.6986 1.19595 19.8946 0 21.3699 0C22.8451 0 24.0411 1.19595 24.0411 2.67123Z" fill="#C4C4C4"/>
<path d="M42.7397 2.67123C42.7397 4.14651 41.5438 5.34247 40.0685 5.34247C38.5932 5.34247 37.3973 4.14651 37.3973 2.67123C37.3973 1.19595 38.5932 0 40.0685 0C41.5438 0 42.7397 1.19595 42.7397 2.67123Z" fill="#C4C4C4"/>
<path d="M61.4384 2.67123C61.4384 4.14651 60.2424 5.34247 58.7671 5.34247C57.2918 5.34247 56.0959 4.14651 56.0959 2.67123C56.0959 1.19595 57.2918 0 58.7671 0C60.2424 0 61.4384 1.19595 61.4384 2.67123Z" fill="#C4C4C4"/>
<path d="M80.137 2.67123C80.137 4.14651 78.941 5.34247 77.4658 5.34247C75.9905 5.34247 74.7945 4.14651 74.7945 2.67123C74.7945 1.19595 75.9905 0 77.4658 0C78.941 0 80.137 1.19595 80.137 2.67123Z" fill="#C4C4C4"/>
<path d="M98.8356 2.67123C98.8356 4.14651 97.6397 5.34247 96.1644 5.34247C94.6891 5.34247 93.4931 4.14651 93.4931 2.67123C93.4931 1.19595 94.6891 0 96.1644 0C97.6397 0 98.8356 1.19595 98.8356 2.67123Z" fill="#C4C4C4"/>
<path d="M117.534 2.67123C117.534 4.14651 116.338 5.34247 114.863 5.34247C113.388 5.34247 112.192 4.14651 112.192 2.67123C112.192 1.19595 113.388 0 114.863 0C116.338 0 117.534 1.19595 117.534 2.67123Z" fill="#C4C4C4"/>
<path d="M136.233 2.67123C136.233 4.14651 135.037 5.34247 133.562 5.34247C132.086 5.34247 130.89 4.14651 130.89 2.67123C130.89 1.19595 132.086 0 133.562 0C135.037 0 136.233 1.19595 136.233 2.67123Z" fill="#C4C4C4"/>
<path d="M154.932 2.67123C154.932 4.14651 153.736 5.34247 152.26 5.34247C150.785 5.34247 149.589 4.14651 149.589 2.67123C149.589 1.19595 150.785 0 152.26 0C153.736 0 154.932 1.19595 154.932 2.67123Z" fill="#C4C4C4"/>
<path d="M173.63 2.67123C173.63 4.14651 172.434 5.34247 170.959 5.34247C169.484 5.34247 168.288 4.14651 168.288 2.67123C168.288 1.19595 169.484 0 170.959 0C172.434 0 173.63 1.19595 173.63 2.67123Z" fill="#C4C4C4"/>
<path d="M5.34247 16.9178C5.34247 18.3931 4.14651 19.589 2.67123 19.589C1.19595 19.589 0 18.3931 0 16.9178C0 15.4425 1.19595 14.2466 2.67123 14.2466C4.14651 14.2466 5.34247 15.4425 5.34247 16.9178Z" fill="#C4C4C4"/>
<path d="M24.0411 16.9178C24.0411 18.3931 22.8451 19.589 21.3699 19.589C19.8946 19.589 18.6986 18.3931 18.6986 16.9178C18.6986 15.4425 19.8946 14.2466 21.3699 14.2466C22.8451 14.2466 24.0411 15.4425 24.0411 16.9178Z" fill="#C4C4C4"/>
<path d="M42.7397 16.9178C42.7397 18.3931 41.5438 19.589 40.0685 19.589C38.5932 19.589 37.3973 18.3931 37.3973 16.9178C37.3973 15.4425 38.5932 14.2466 40.0685 14.2466C41.5438 14.2466 42.7397 15.4425 42.7397 16.9178Z" fill="#C4C4C4"/>
<path d="M61.4384 16.9178C61.4384 18.3931 60.2424 19.589 58.7671 19.589C57.2918 19.589 56.0959 18.3931 56.0959 16.9178C56.0959 15.4425 57.2918 14.2466 58.7671 14.2466C60.2424 14.2466 61.4384 15.4425 61.4384 16.9178Z" fill="#C4C4C4"/>
<path d="M80.137 16.9178C80.137 18.3931 78.941 19.589 77.4658 19.589C75.9905 19.589 74.7945 18.3931 74.7945 16.9178C74.7945 15.4425 75.9905 14.2466 77.4658 14.2466C78.941 14.2466 80.137 15.4425 80.137 16.9178Z" fill="#C4C4C4"/>
<path d="M98.8356 16.9178C98.8356 18.3931 97.6397 19.589 96.1644 19.589C94.6891 19.589 93.4931 18.3931 93.4931 16.9178C93.4931 15.4425 94.6891 14.2466 96.1644 14.2466C97.6397 14.2466 98.8356 15.4425 98.8356 16.9178Z" fill="#C4C4C4"/>
<path d="M117.534 16.9178C117.534 18.3931 116.338 19.589 114.863 19.589C113.388 19.589 112.192 18.3931 112.192 16.9178C112.192 15.4425 113.388 14.2466 114.863 14.2466C116.338 14.2466 117.534 15.4425 117.534 16.9178Z" fill="#C4C4C4"/>
<path d="M136.233 16.9178C136.233 18.3931 135.037 19.589 133.562 19.589C132.086 19.589 130.89 18.3931 130.89 16.9178C130.89 15.4425 132.086 14.2466 133.562 14.2466C135.037 14.2466 136.233 15.4425 136.233 16.9178Z" fill="#C4C4C4"/>
<path d="M154.932 16.9178C154.932 18.3931 153.736 19.589 152.26 19.589C150.785 19.589 149.589 18.3931 149.589 16.9178C149.589 15.4425 150.785 14.2466 152.26 14.2466C153.736 14.2466 154.932 15.4425 154.932 16.9178Z" fill="#C4C4C4"/>
<path d="M173.63 16.9178C173.63 18.3931 172.434 19.589 170.959 19.589C169.484 19.589 168.288 18.3931 168.288 16.9178C168.288 15.4425 169.484 14.2466 170.959 14.2466C172.434 14.2466 173.63 15.4425 173.63 16.9178Z" fill="#C4C4C4"/>
<path d="M5.34247 31.1644C5.34247 32.6397 4.14651 33.8356 2.67123 33.8356C1.19595 33.8356 0 32.6397 0 31.1644C0 29.6891 1.19595 28.4932 2.67123 28.4932C4.14651 28.4932 5.34247 29.6891 5.34247 31.1644Z" fill="#C4C4C4"/>
<path d="M24.0411 31.1644C24.0411 32.6397 22.8451 33.8356 21.3699 33.8356C19.8946 33.8356 18.6986 32.6397 18.6986 31.1644C18.6986 29.6891 19.8946 28.4932 21.3699 28.4932C22.8451 28.4932 24.0411 29.6891 24.0411 31.1644Z" fill="#C4C4C4"/>
<path d="M42.7397 31.1644C42.7397 32.6397 41.5438 33.8356 40.0685 33.8356C38.5932 33.8356 37.3973 32.6397 37.3973 31.1644C37.3973 29.6891 38.5932 28.4932 40.0685 28.4932C41.5438 28.4932 42.7397 29.6891 42.7397 31.1644Z" fill="#C4C4C4"/>
<path d="M61.4384 31.1644C61.4384 32.6397 60.2424 33.8356 58.7671 33.8356C57.2918 33.8356 56.0959 32.6397 56.0959 31.1644C56.0959 29.6891 57.2918 28.4932 58.7671 28.4932C60.2424 28.4932 61.4384 29.6891 61.4384 31.1644Z" fill="#C4C4C4"/>
<path d="M80.137 31.1644C80.137 32.6397 78.941 33.8356 77.4658 33.8356C75.9905 33.8356 74.7945 32.6397 74.7945 31.1644C74.7945 29.6891 75.9905 28.4932 77.4658 28.4932C78.941 28.4932 80.137 29.6891 80.137 31.1644Z" fill="#C4C4C4"/>
<path d="M98.8356 31.1644C98.8356 32.6397 97.6397 33.8356 96.1644 33.8356C94.6891 33.8356 93.4931 32.6397 93.4931 31.1644C93.4931 29.6891 94.6891 28.4932 96.1644 28.4932C97.6397 28.4932 98.8356 29.6891 98.8356 31.1644Z" fill="#C4C4C4"/>
<path d="M117.534 31.1644C117.534 32.6397 116.338 33.8356 114.863 33.8356C113.388 33.8356 112.192 32.6397 112.192 31.1644C112.192 29.6891 113.388 28.4932 114.863 28.4932C116.338 28.4932 117.534 29.6891 117.534 31.1644Z" fill="#C4C4C4"/>
<path d="M136.233 31.1644C136.233 32.6397 135.037 33.8356 133.562 33.8356C132.086 33.8356 130.89 32.6397 130.89 31.1644C130.89 29.6891 132.086 28.4932 133.562 28.4932C135.037 28.4932 136.233 29.6891 136.233 31.1644Z" fill="#C4C4C4"/>
<path d="M154.932 31.1644C154.932 32.6397 153.736 33.8356 152.26 33.8356C150.785 33.8356 149.589 32.6397 149.589 31.1644C149.589 29.6891 150.785 28.4932 152.26 28.4932C153.736 28.4932 154.932 29.6891 154.932 31.1644Z" fill="#C4C4C4"/>
<path d="M173.63 31.1644C173.63 32.6397 172.434 33.8356 170.959 33.8356C169.484 33.8356 168.288 32.6397 168.288 31.1644C168.288 29.6891 169.484 28.4932 170.959 28.4932C172.434 28.4932 173.63 29.6891 173.63 31.1644Z" fill="#C4C4C4"/>
<path d="M5.34247 45.411C5.34247 46.8862 4.14651 48.0822 2.67123 48.0822C1.19595 48.0822 0 46.8862 0 45.411C0 43.9357 1.19595 42.7397 2.67123 42.7397C4.14651 42.7397 5.34247 43.9357 5.34247 45.411Z" fill="#C4C4C4"/>
<path d="M24.0411 45.411C24.0411 46.8862 22.8451 48.0822 21.3699 48.0822C19.8946 48.0822 18.6986 46.8862 18.6986 45.411C18.6986 43.9357 19.8946 42.7397 21.3699 42.7397C22.8451 42.7397 24.0411 43.9357 24.0411 45.411Z" fill="#C4C4C4"/>
<path d="M42.7397 45.411C42.7397 46.8862 41.5438 48.0822 40.0685 48.0822C38.5932 48.0822 37.3973 46.8862 37.3973 45.411C37.3973 43.9357 38.5932 42.7397 40.0685 42.7397C41.5438 42.7397 42.7397 43.9357 42.7397 45.411Z" fill="#C4C4C4"/>
<path d="M61.4384 45.411C61.4384 46.8862 60.2424 48.0822 58.7671 48.0822C57.2918 48.0822 56.0959 46.8862 56.0959 45.411C56.0959 43.9357 57.2918 42.7397 58.7671 42.7397C60.2424 42.7397 61.4384 43.9357 61.4384 45.411Z" fill="#C4C4C4"/>
<path d="M80.137 45.411C80.137 46.8862 78.941 48.0822 77.4658 48.0822C75.9905 48.0822 74.7945 46.8862 74.7945 45.411C74.7945 43.9357 75.9905 42.7397 77.4658 42.7397C78.941 42.7397 80.137 43.9357 80.137 45.411Z" fill="#C4C4C4"/>
<path d="M98.8356 45.411C98.8356 46.8862 97.6397 48.0822 96.1644 48.0822C94.6891 48.0822 93.4931 46.8862 93.4931 45.411C93.4931 43.9357 94.6891 42.7397 96.1644 42.7397C97.6397 42.7397 98.8356 43.9357 98.8356 45.411Z" fill="#C4C4C4"/>
<path d="M117.534 45.411C117.534 46.8862 116.338 48.0822 114.863 48.0822C113.388 48.0822 112.192 46.8862 112.192 45.411C112.192 43.9357 113.388 42.7397 114.863 42.7397C116.338 42.7397 117.534 43.9357 117.534 45.411Z" fill="#C4C4C4"/>
<path d="M136.233 45.411C136.233 46.8862 135.037 48.0822 133.562 48.0822C132.086 48.0822 130.89 46.8862 130.89 45.411C130.89 43.9357 132.086 42.7397 133.562 42.7397C135.037 42.7397 136.233 43.9357 136.233 45.411Z" fill="#C4C4C4"/>
<path d="M154.932 45.411C154.932 46.8862 153.736 48.0822 152.26 48.0822C150.785 48.0822 149.589 46.8862 149.589 45.411C149.589 43.9357 150.785 42.7397 152.26 42.7397C153.736 42.7397 154.932 43.9357 154.932 45.411Z" fill="#C4C4C4"/>
<path d="M173.63 45.411C173.63 46.8862 172.434 48.0822 170.959 48.0822C169.484 48.0822 168.288 46.8862 168.288 45.411C168.288 43.9357 169.484 42.7397 170.959 42.7397C172.434 42.7397 173.63 43.9357 173.63 45.411Z" fill="#C4C4C4"/>
<path d="M5.34247 59.6575C5.34247 61.1328 4.14651 62.3288 2.67123 62.3288C1.19595 62.3288 0 61.1328 0 59.6575C0 58.1823 1.19595 56.9863 2.67123 56.9863C4.14651 56.9863 5.34247 58.1823 5.34247 59.6575Z" fill="#C4C4C4"/>
<path d="M24.0411 59.6575C24.0411 61.1328 22.8451 62.3288 21.3699 62.3288C19.8946 62.3288 18.6986 61.1328 18.6986 59.6575C18.6986 58.1823 19.8946 56.9863 21.3699 56.9863C22.8451 56.9863 24.0411 58.1823 24.0411 59.6575Z" fill="#C4C4C4"/>
<path d="M42.7397 59.6575C42.7397 61.1328 41.5438 62.3288 40.0685 62.3288C38.5932 62.3288 37.3973 61.1328 37.3973 59.6575C37.3973 58.1823 38.5932 56.9863 40.0685 56.9863C41.5438 56.9863 42.7397 58.1823 42.7397 59.6575Z" fill="#C4C4C4"/>
<path d="M61.4384 59.6575C61.4384 61.1328 60.2424 62.3288 58.7671 62.3288C57.2918 62.3288 56.0959 61.1328 56.0959 59.6575C56.0959 58.1823 57.2918 56.9863 58.7671 56.9863C60.2424 56.9863 61.4384 58.1823 61.4384 59.6575Z" fill="#C4C4C4"/>
<path d="M80.137 59.6575C80.137 61.1328 78.941 62.3288 77.4658 62.3288C75.9905 62.3288 74.7945 61.1328 74.7945 59.6575C74.7945 58.1823 75.9905 56.9863 77.4658 56.9863C78.941 56.9863 80.137 58.1823 80.137 59.6575Z" fill="#C4C4C4"/>
<path d="M98.8356 59.6575C98.8356 61.1328 97.6397 62.3288 96.1644 62.3288C94.6891 62.3288 93.4931 61.1328 93.4931 59.6575C93.4931 58.1823 94.6891 56.9863 96.1644 56.9863C97.6397 56.9863 98.8356 58.1823 98.8356 59.6575Z" fill="#C4C4C4"/>
<path d="M117.534 59.6575C117.534 61.1328 116.338 62.3288 114.863 62.3288C113.388 62.3288 112.192 61.1328 112.192 59.6575C112.192 58.1823 113.388 56.9863 114.863 56.9863C116.338 56.9863 117.534 58.1823 117.534 59.6575Z" fill="#C4C4C4"/>
<path d="M136.233 59.6575C136.233 61.1328 135.037 62.3288 133.562 62.3288C132.086 62.3288 130.89 61.1328 130.89 59.6575C130.89 58.1823 132.086 56.9863 133.562 56.9863C135.037 56.9863 136.233 58.1823 136.233 59.6575Z" fill="#C4C4C4"/>
<path d="M154.932 59.6575C154.932 61.1328 153.736 62.3288 152.26 62.3288C150.785 62.3288 149.589 61.1328 149.589 59.6575C149.589 58.1823 150.785 56.9863 152.26 56.9863C153.736 56.9863 154.932 58.1823 154.932 59.6575Z" fill="#C4C4C4"/>
<path d="M173.63 59.6575C173.63 61.1328 172.434 62.3288 170.959 62.3288C169.484 62.3288 168.288 61.1328 168.288 59.6575C168.288 58.1823 169.484 56.9863 170.959 56.9863C172.434 56.9863 173.63 58.1823 173.63 59.6575Z" fill="#C4C4C4"/>
<path d="M5.34247 73.9041C5.34247 75.3794 4.14651 76.5753 2.67123 76.5753C1.19595 76.5753 0 75.3794 0 73.9041C0 72.4288 1.19595 71.2329 2.67123 71.2329C4.14651 71.2329 5.34247 72.4288 5.34247 73.9041Z" fill="#C4C4C4"/>
<path d="M24.0411 73.9041C24.0411 75.3794 22.8451 76.5753 21.3699 76.5753C19.8946 76.5753 18.6986 75.3794 18.6986 73.9041C18.6986 72.4288 19.8946 71.2329 21.3699 71.2329C22.8451 71.2329 24.0411 72.4288 24.0411 73.9041Z" fill="#C4C4C4"/>
<path d="M42.7397 73.9041C42.7397 75.3794 41.5438 76.5753 40.0685 76.5753C38.5932 76.5753 37.3973 75.3794 37.3973 73.9041C37.3973 72.4288 38.5932 71.2329 40.0685 71.2329C41.5438 71.2329 42.7397 72.4288 42.7397 73.9041Z" fill="#C4C4C4"/>
<path d="M61.4384 73.9041C61.4384 75.3794 60.2424 76.5753 58.7671 76.5753C57.2918 76.5753 56.0959 75.3794 56.0959 73.9041C56.0959 72.4288 57.2918 71.2329 58.7671 71.2329C60.2424 71.2329 61.4384 72.4288 61.4384 73.9041Z" fill="#C4C4C4"/>
<path d="M80.137 73.9041C80.137 75.3794 78.941 76.5753 77.4658 76.5753C75.9905 76.5753 74.7945 75.3794 74.7945 73.9041C74.7945 72.4288 75.9905 71.2329 77.4658 71.2329C78.941 71.2329 80.137 72.4288 80.137 73.9041Z" fill="#C4C4C4"/>
<path d="M98.8356 73.9041C98.8356 75.3794 97.6397 76.5753 96.1644 76.5753C94.6891 76.5753 93.4931 75.3794 93.4931 73.9041C93.4931 72.4288 94.6891 71.2329 96.1644 71.2329C97.6397 71.2329 98.8356 72.4288 98.8356 73.9041Z" fill="#C4C4C4"/>
<path d="M117.534 73.9041C117.534 75.3794 116.338 76.5753 114.863 76.5753C113.388 76.5753 112.192 75.3794 112.192 73.9041C112.192 72.4288 113.388 71.2329 114.863 71.2329C116.338 71.2329 117.534 72.4288 117.534 73.9041Z" fill="#C4C4C4"/>
<path d="M136.233 73.9041C136.233 75.3794 135.037 76.5753 133.562 76.5753C132.086 76.5753 130.89 75.3794 130.89 73.9041C130.89 72.4288 132.086 71.2329 133.562 71.2329C135.037 71.2329 136.233 72.4288 136.233 73.9041Z" fill="#C4C4C4"/>
<path d="M154.932 73.9041C154.932 75.3794 153.736 76.5753 152.26 76.5753C150.785 76.5753 149.589 75.3794 149.589 73.9041C149.589 72.4288 150.785 71.2329 152.26 71.2329C153.736 71.2329 154.932 72.4288 154.932 73.9041Z" fill="#C4C4C4"/>
<path d="M173.63 73.9041C173.63 75.3794 172.434 76.5753 170.959 76.5753C169.484 76.5753 168.288 75.3794 168.288 73.9041C168.288 72.4288 169.484 71.2329 170.959 71.2329C172.434 71.2329 173.63 72.4288 173.63 73.9041Z" fill="#C4C4C4"/>
<path d="M5.34247 88.1507C5.34247 89.626 4.14651 90.8219 2.67123 90.8219C1.19595 90.8219 0 89.626 0 88.1507C0 86.6754 1.19595 85.4795 2.67123 85.4795C4.14651 85.4795 5.34247 86.6754 5.34247 88.1507Z" fill="#C4C4C4"/>
<path d="M24.0411 88.1507C24.0411 89.626 22.8451 90.8219 21.3699 90.8219C19.8946 90.8219 18.6986 89.626 18.6986 88.1507C18.6986 86.6754 19.8946 85.4795 21.3699 85.4795C22.8451 85.4795 24.0411 86.6754 24.0411 88.1507Z" fill="#C4C4C4"/>
<path d="M42.7397 88.1507C42.7397 89.626 41.5438 90.8219 40.0685 90.8219C38.5932 90.8219 37.3973 89.626 37.3973 88.1507C37.3973 86.6754 38.5932 85.4795 40.0685 85.4795C41.5438 85.4795 42.7397 86.6754 42.7397 88.1507Z" fill="#C4C4C4"/>
<path d="M61.4384 88.1507C61.4384 89.626 60.2424 90.8219 58.7671 90.8219C57.2918 90.8219 56.0959 89.626 56.0959 88.1507C56.0959 86.6754 57.2918 85.4795 58.7671 85.4795C60.2424 85.4795 61.4384 86.6754 61.4384 88.1507Z" fill="#C4C4C4"/>
<path d="M80.137 88.1507C80.137 89.626 78.941 90.8219 77.4658 90.8219C75.9905 90.8219 74.7945 89.626 74.7945 88.1507C74.7945 86.6754 75.9905 85.4795 77.4658 85.4795C78.941 85.4795 80.137 86.6754 80.137 88.1507Z" fill="#C4C4C4"/>
<path d="M98.8356 88.1507C98.8356 89.626 97.6397 90.8219 96.1644 90.8219C94.6891 90.8219 93.4931 89.626 93.4931 88.1507C93.4931 86.6754 94.6891 85.4795 96.1644 85.4795C97.6397 85.4795 98.8356 86.6754 98.8356 88.1507Z" fill="#C4C4C4"/>
<path d="M117.534 88.1507C117.534 89.626 116.338 90.8219 114.863 90.8219C113.388 90.8219 112.192 89.626 112.192 88.1507C112.192 86.6754 113.388 85.4795 114.863 85.4795C116.338 85.4795 117.534 86.6754 117.534 88.1507Z" fill="#C4C4C4"/>
<path d="M136.233 88.1507C136.233 89.626 135.037 90.8219 133.562 90.8219C132.086 90.8219 130.89 89.626 130.89 88.1507C130.89 86.6754 132.086 85.4795 133.562 85.4795C135.037 85.4795 136.233 86.6754 136.233 88.1507Z" fill="#C4C4C4"/>
<path d="M154.932 88.1507C154.932 89.626 153.736 90.8219 152.26 90.8219C150.785 90.8219 149.589 89.626 149.589 88.1507C149.589 86.6754 150.785 85.4795 152.26 85.4795C153.736 85.4795 154.932 86.6754 154.932 88.1507Z" fill="#C4C4C4"/>
<path d="M173.63 88.1507C173.63 89.626 172.434 90.8219 170.959 90.8219C169.484 90.8219 168.288 89.626 168.288 88.1507C168.288 86.6754 169.484 85.4795 170.959 85.4795C172.434 85.4795 173.63 86.6754 173.63 88.1507Z" fill="#C4C4C4"/>
<path d="M5.34247 102.397C5.34247 103.873 4.14651 105.068 2.67123 105.068C1.19595 105.068 0 103.873 0 102.397C0 100.922 1.19595 99.726 2.67123 99.726C4.14651 99.726 5.34247 100.922 5.34247 102.397Z" fill="#C4C4C4"/>
<path d="M24.0411 102.397C24.0411 103.873 22.8451 105.068 21.3699 105.068C19.8946 105.068 18.6986 103.873 18.6986 102.397C18.6986 100.922 19.8946 99.726 21.3699 99.726C22.8451 99.726 24.0411 100.922 24.0411 102.397Z" fill="#C4C4C4"/>
<path d="M42.7397 102.397C42.7397 103.873 41.5438 105.068 40.0685 105.068C38.5932 105.068 37.3973 103.873 37.3973 102.397C37.3973 100.922 38.5932 99.726 40.0685 99.726C41.5438 99.726 42.7397 100.922 42.7397 102.397Z" fill="#C4C4C4"/>
<path d="M61.4384 102.397C61.4384 103.873 60.2424 105.068 58.7671 105.068C57.2918 105.068 56.0959 103.873 56.0959 102.397C56.0959 100.922 57.2918 99.726 58.7671 99.726C60.2424 99.726 61.4384 100.922 61.4384 102.397Z" fill="#C4C4C4"/>
<path d="M80.137 102.397C80.137 103.873 78.941 105.068 77.4658 105.068C75.9905 105.068 74.7945 103.873 74.7945 102.397C74.7945 100.922 75.9905 99.726 77.4658 99.726C78.941 99.726 80.137 100.922 80.137 102.397Z" fill="#C4C4C4"/>
<path d="M98.8356 102.397C98.8356 103.873 97.6397 105.068 96.1644 105.068C94.6891 105.068 93.4931 103.873 93.4931 102.397C93.4931 100.922 94.6891 99.726 96.1644 99.726C97.6397 99.726 98.8356 100.922 98.8356 102.397Z" fill="#C4C4C4"/>
<path d="M117.534 102.397C117.534 103.873 116.338 105.068 114.863 105.068C113.388 105.068 112.192 103.873 112.192 102.397C112.192 100.922 113.388 99.726 114.863 99.726C116.338 99.726 117.534 100.922 117.534 102.397Z" fill="#C4C4C4"/>
<path d="M136.233 102.397C136.233 103.873 135.037 105.068 133.562 105.068C132.086 105.068 130.89 103.873 130.89 102.397C130.89 100.922 132.086 99.726 133.562 99.726C135.037 99.726 136.233 100.922 136.233 102.397Z" fill="#C4C4C4"/>
<path d="M154.932 102.397C154.932 103.873 153.736 105.068 152.26 105.068C150.785 105.068 149.589 103.873 149.589 102.397C149.589 100.922 150.785 99.726 152.26 99.726C153.736 99.726 154.932 100.922 154.932 102.397Z" fill="#C4C4C4"/>
<path d="M173.63 102.397C173.63 103.873 172.434 105.068 170.959 105.068C169.484 105.068 168.288 103.873 168.288 102.397C168.288 100.922 169.484 99.726 170.959 99.726C172.434 99.726 173.63 100.922 173.63 102.397Z" fill="#C4C4C4"/>
<path d="M5.34247 116.644C5.34247 118.119 4.14651 119.315 2.67123 119.315C1.19595 119.315 0 118.119 0 116.644C0 115.169 1.19595 113.973 2.67123 113.973C4.14651 113.973 5.34247 115.169 5.34247 116.644Z" fill="#C4C4C4"/>
<path d="M24.0411 116.644C24.0411 118.119 22.8451 119.315 21.3699 119.315C19.8946 119.315 18.6986 118.119 18.6986 116.644C18.6986 115.169 19.8946 113.973 21.3699 113.973C22.8451 113.973 24.0411 115.169 24.0411 116.644Z" fill="#C4C4C4"/>
<path d="M42.7397 116.644C42.7397 118.119 41.5438 119.315 40.0685 119.315C38.5932 119.315 37.3973 118.119 37.3973 116.644C37.3973 115.169 38.5932 113.973 40.0685 113.973C41.5438 113.973 42.7397 115.169 42.7397 116.644Z" fill="#C4C4C4"/>
<path d="M61.4384 116.644C61.4384 118.119 60.2424 119.315 58.7671 119.315C57.2918 119.315 56.0959 118.119 56.0959 116.644C56.0959 115.169 57.2918 113.973 58.7671 113.973C60.2424 113.973 61.4384 115.169 61.4384 116.644Z" fill="#C4C4C4"/>
<path d="M80.137 116.644C80.137 118.119 78.941 119.315 77.4658 119.315C75.9905 119.315 74.7945 118.119 74.7945 116.644C74.7945 115.169 75.9905 113.973 77.4658 113.973C78.941 113.973 80.137 115.169 80.137 116.644Z" fill="#C4C4C4"/>
<path d="M98.8356 116.644C98.8356 118.119 97.6397 119.315 96.1644 119.315C94.6891 119.315 93.4931 118.119 93.4931 116.644C93.4931 115.169 94.6891 113.973 96.1644 113.973C97.6397 113.973 98.8356 115.169 98.8356 116.644Z" fill="#C4C4C4"/>
<path d="M117.534 116.644C117.534 118.119 116.338 119.315 114.863 119.315C113.388 119.315 112.192 118.119 112.192 116.644C112.192 115.169 113.388 113.973 114.863 113.973C116.338 113.973 117.534 115.169 117.534 116.644Z" fill="#C4C4C4"/>
<path d="M136.233 116.644C136.233 118.119 135.037 119.315 133.562 119.315C132.086 119.315 130.89 118.119 130.89 116.644C130.89 115.169 132.086 113.973 133.562 113.973C135.037 113.973 136.233 115.169 136.233 116.644Z" fill="#C4C4C4"/>
<path d="M154.932 116.644C154.932 118.119 153.736 119.315 152.26 119.315C150.785 119.315 149.589 118.119 149.589 116.644C149.589 115.169 150.785 113.973 152.26 113.973C153.736 113.973 154.932 115.169 154.932 116.644Z" fill="#C4C4C4"/>
<path d="M173.63 116.644C173.63 118.119 172.434 119.315 170.959 119.315C169.484 119.315 168.288 118.119 168.288 116.644C168.288 115.169 169.484 113.973 170.959 113.973C172.434 113.973 173.63 115.169 173.63 116.644Z" fill="#C4C4C4"/>
<path d="M5.34247 130.89C5.34247 132.366 4.14651 133.562 2.67123 133.562C1.19595 133.562 0 132.366 0 130.89C0 129.415 1.19595 128.219 2.67123 128.219C4.14651 128.219 5.34247 129.415 5.34247 130.89Z" fill="#C4C4C4"/>
<path d="M24.0411 130.89C24.0411 132.366 22.8451 133.562 21.3699 133.562C19.8946 133.562 18.6986 132.366 18.6986 130.89C18.6986 129.415 19.8946 128.219 21.3699 128.219C22.8451 128.219 24.0411 129.415 24.0411 130.89Z" fill="#C4C4C4"/>
<path d="M42.7397 130.89C42.7397 132.366 41.5438 133.562 40.0685 133.562C38.5932 133.562 37.3973 132.366 37.3973 130.89C37.3973 129.415 38.5932 128.219 40.0685 128.219C41.5438 128.219 42.7397 129.415 42.7397 130.89Z" fill="#C4C4C4"/>
<path d="M61.4384 130.89C61.4384 132.366 60.2424 133.562 58.7671 133.562C57.2918 133.562 56.0959 132.366 56.0959 130.89C56.0959 129.415 57.2918 128.219 58.7671 128.219C60.2424 128.219 61.4384 129.415 61.4384 130.89Z" fill="#C4C4C4"/>
<path d="M80.137 130.89C80.137 132.366 78.941 133.562 77.4658 133.562C75.9905 133.562 74.7945 132.366 74.7945 130.89C74.7945 129.415 75.9905 128.219 77.4658 128.219C78.941 128.219 80.137 129.415 80.137 130.89Z" fill="#C4C4C4"/>
<path d="M98.8356 130.89C98.8356 132.366 97.6397 133.562 96.1644 133.562C94.6891 133.562 93.4931 132.366 93.4931 130.89C93.4931 129.415 94.6891 128.219 96.1644 128.219C97.6397 128.219 98.8356 129.415 98.8356 130.89Z" fill="#C4C4C4"/>
<path d="M117.534 130.89C117.534 132.366 116.338 133.562 114.863 133.562C113.388 133.562 112.192 132.366 112.192 130.89C112.192 129.415 113.388 128.219 114.863 128.219C116.338 128.219 117.534 129.415 117.534 130.89Z" fill="#C4C4C4"/>
<path d="M136.233 130.89C136.233 132.366 135.037 133.562 133.562 133.562C132.086 133.562 130.89 132.366 130.89 130.89C130.89 129.415 132.086 128.219 133.562 128.219C135.037 128.219 136.233 129.415 136.233 130.89Z" fill="#C4C4C4"/>
<path d="M154.932 130.89C154.932 132.366 153.736 133.562 152.26 133.562C150.785 133.562 149.589 132.366 149.589 130.89C149.589 129.415 150.785 128.219 152.26 128.219C153.736 128.219 154.932 129.415 154.932 130.89Z" fill="#C4C4C4"/>
<path d="M173.63 130.89C173.63 132.366 172.434 133.562 170.959 133.562C169.484 133.562 168.288 132.366 168.288 130.89C168.288 129.415 169.484 128.219 170.959 128.219C172.434 128.219 173.63 129.415 173.63 130.89Z" fill="#C4C4C4"/>
</svg>
